HIERARCHY
ROOT Hips
{
 OFFSET 0.000000 0.000000 0.000000
 CHANNELS 6 Xposition Yposition Zposition Yrotation Xrotation Zrotation
 JOINT Chest
 {
  OFFSET 0.000000 9.581000 -0.001100
  CHANNELS 3 Yrotation Xrotation Zrotation
  JOINT Chest2
  {
   OFFSET 0.000000 9.561100 0.002200
   CHANNELS 3 Yrotation Xrotation Zrotation
   JOINT Chest3
   {
    OFFSET 0.000000 9.521100 0.000000
    CHANNELS 3 Yrotation Xrotation Zrotation
    JOINT Chest4
    {
     OFFSET 0.000000 9.511400 0.000000
     CHANNELS 3 Yrotation Xrotation Zrotation
     JOINT Neck
     {
      OFFSET 0.000000 14.375100 0.000000
      CHANNELS 3 Yrotation Xrotation Zrotation
      JOINT Head
      {
       OFFSET 0.000000 8.901200 0.004600
       CHANNELS 3 Yrotation Xrotation Zrotation
       End Site
       {
        OFFSET 0.000000 16.962200 0.002400
       }
      }
     }
     JOINT RightCollar
     {
      OFFSET -2.920100 9.518800 0.000000
      CHANNELS 3 Yrotation Xrotation Zrotation
      JOINT RightShoulder
      {
       OFFSET -13.664500 0.000000 0.000000
       CHANNELS 3 Yrotation Xrotation Zrotation
       JOINT RightElbow
       {
        OFFSET 0.000000 -29.999200 0.000000
        CHANNELS 3 Yrotation Xrotation Zrotation
        JOINT RightWrist
        {
         OFFSET 0.000000 -24.253600 0.000000
         CHANNELS 3 Yrotation Xrotation Zrotation
         End Site
         {
          OFFSET 0.000000 -17.918900 0.000000
         }
        }
       }
      }
     }
     JOINT LeftCollar
     {
      OFFSET 2.920100 9.518800 0.000000
      CHANNELS 3 Yrotation Xrotation Zrotation
      JOINT LeftShoulder
      {
       OFFSET 13.664500 0.000000 0.000000
       CHANNELS 3 Yrotation Xrotation Zrotation
       JOINT LeftElbow
       {
        OFFSET 0.000000 -29.999200 0.000000
        CHANNELS 3 Yrotation Xrotation Zrotation
        JOINT LeftWrist
        {
         OFFSET 0.000000 -24.253600 0.000000
         CHANNELS 3 Yrotation Xrotation Zrotation
         End Site
         {
          OFFSET 0.000000 -17.918900 0.000000
         }
        }
       }
      }
     }
    }
   }
  }
 }
 JOINT RightHip
 {
  OFFSET -7.797300 0.005300 0.000500
  CHANNELS 3 Yrotation Xrotation Zrotation
  JOINT RightKnee
  {
   OFFSET 0.000000 -40.663400 -0.000500
   CHANNELS 3 Yrotation Xrotation Zrotation
   JOINT RightAnkle
   {
    OFFSET 0.000000 -39.523700 -0.000900
    CHANNELS 3 Yrotation Xrotation Zrotation
    JOINT RightToe
    {
     OFFSET 0.000000 -6.418000 14.485300
     CHANNELS 3 Yrotation Xrotation Zrotation
     End Site
     {
      OFFSET 0.000000 -1.465200 6.326400
     }
    }
   }
  }
 }
 JOINT LeftHip
 {
  OFFSET 7.797300 0.005300 0.000500
  CHANNELS 3 Yrotation Xrotation Zrotation
  JOINT LeftKnee
  {
   OFFSET 0.000000 -40.663400 -0.000500
   CHANNELS 3 Yrotation Xrotation Zrotation
   JOINT LeftAnkle
   {
    OFFSET 0.000000 -39.523700 -0.000900
    CHANNELS 3 Yrotation Xrotation Zrotation
    JOINT LeftToe
    {
     OFFSET 0.000000 -6.418000 14.485300
     CHANNELS 3 Yrotation Xrotation Zrotation
     End Site
     {
      OFFSET 0.000000 -1.465200 6.326400
     }
    }
   }
  }
 }
}
MOTION
Frames: 11
Frame Time: 0.008333
-15.231965 126.871431 17.687313 172.098230 -44.098299 -4.232141 3.138051 24.917061 3.545180 0.395227 3.987565 0.468419 0.635314 6.373576 0.752760 2.431262 20.632471 2.786034 2.271524 23.313795 -1.045740 2.690776 -0.684831 -1.663273 0.817937 2.982576 3.960498 -11.235784 -11.606783 -6.877610 -123.738897 -58.369015 161.931156 -4.363576 -11.091256 -20.528166 -9.852041 0.604955 -0.631134 7.194690 -13.507572 6.294064 104.064936 -59.490791 -135.955990 -0.346237 -26.866868 37.539463 -3.567926 -25.264238 1.243520 -50.074611 86.154940 -52.099350 6.844615 -12.763251 3.235912 0.001087 -0.002233 0.000482 0.003823 -27.023971 0.789636 37.289633 83.812187 41.927892 -0.739362 -16.726528 -3.712253 0.001572 0.000491 0.000696
-15.232700 126.872299 17.686907 172.092930 -44.108853 -4.223143 3.155974 24.926768 3.559131 0.385796 3.988910 0.460970 0.639554 6.377788 0.755837 2.443933 20.634992 2.790364 2.259079 23.282907 -1.053112 2.702716 -0.766345 -1.684988 0.807416 2.972925 3.961805 -11.231484 -11.564407 -6.874953 -123.825170 -58.408515 162.055482 -4.294265 -11.043192 -20.310824 -9.865636 0.579752 -0.624110 7.162381 -13.490021 6.295066 103.953519 -59.539381 -135.961581 -0.386304 -26.771104 37.346354 -3.562724 -25.255966 1.231844 -50.071036 86.161015 -52.093525 6.853561 -12.764049 3.227684 0.003333 -0.002644 0.001477 0.023115 -27.010276 0.783292 37.254444 83.814603 41.900336 -0.740382 -16.740325 -3.712770 0.003489 0.000741 0.001546
-15.233418 126.872520 17.687090 172.094798 -44.113639 -4.220091 3.161384 24.932540 3.564191 0.379315 3.988213 0.456532 0.648701 6.383627 0.762533 2.446169 20.637335 2.794496 2.277886 23.202579 -1.071279 2.695760 -0.792632 -1.688498 0.800403 2.958666 3.962009 -11.225951 -11.522457 -6.877529 -123.903496 -58.439927 162.163629 -4.220690 -10.979705 -20.077798 -9.864967 0.524055 -0.618628 7.122471 -13.444592 6.299453 103.864037 -59.597872 -135.982943 -0.429018 -26.670625 37.144318 -3.563408 -25.253438 1.224468 -50.080170 86.166164 -52.101130 6.837921 -12.760833 3.232332 0.001725 -0.002436 0.000764 0.037069 -27.000294 0.778985 37.224275 83.818469 41.872098 -0.743577 -16.767423 -3.705866 0.001637 0.001078 0.000725
-15.234002 126.872337 17.687616 172.096337 -44.114718 -4.218389 3.166391 24.934988 3.570974 0.381570 3.990657 0.456981 0.648724 6.384723 0.765426 2.450526 20.644141 2.798087 2.287874 23.143776 -1.084782 2.696763 -0.836292 -1.700658 0.802855 2.936282 3.965424 -11.235078 -11.488839 -6.886507 -123.955607 -58.440708 162.219862 -4.132346 -10.875179 -19.816767 -9.878036 0.497212 -0.619338 7.061721 -13.440099 6.319478 103.799257 -59.659007 -135.993425 -0.479696 -26.559452 36.932008 -3.564781 -25.254565 1.218926 -50.090520 86.171791 -52.111695 6.826561 -12.760323 3.235571 0.000051 -0.002431 0.000023 0.043892 -26.993230 0.778784 37.238042 83.824068 41.876193 -0.740015 -16.815413 -3.697331 -0.003757 -0.003135 -0.001664
-15.234351 126.872185 17.688050 172.093321 -44.115737 -4.215465 3.171049 24.937421 3.578869 0.389298 3.992119 0.456998 0.641298 6.383495 0.763677 2.477800 20.653137 2.827380 2.270054 23.097109 -1.112450 2.704290 -0.884358 -1.719502 0.781431 2.916196 3.949199 -11.241618 -11.474056 -6.894006 -124.003605 -58.485048 162.290019 -4.058234 -10.796941 -19.566120 -9.905939 0.466839 -0.634718 6.926249 -13.466010 6.379867 103.738238 -59.709235 -135.922589 -0.536178 -26.431781 36.704502 -3.563013 -25.255575 1.216365 -50.137644 86.174731 -52.158171 6.816915 -12.760320 3.239102 -0.000524 -0.001686 -0.000232 0.052544 -26.989188 0.777115 37.237486 83.826067 41.877187 -0.738254 -16.830881 -3.696024 -0.003858 -0.002354 -0.001709
-15.234405 126.872260 17.688232 172.089811 -44.117881 -4.214401 3.176310 24.942184 3.588830 0.387896 3.990767 0.458970 0.641102 6.383271 0.760022 2.484906 20.659418 2.838503 2.276279 23.058044 -1.129788 2.714656 -0.930509 -1.739472 0.776644 2.903934 3.938899 -11.234259 -11.440746 -6.901572 -124.085785 -58.521685 162.393386 -3.979265 -10.721672 -19.306938 -9.915354 0.428029 -0.636418 6.843691 -13.462801 6.413559 103.679337 -59.771194 -135.902219 -0.596058 -26.287806 36.462911 -3.562262 -25.255364 1.215245 -50.184934 86.177190 -52.205016 6.814517 -12.759139 3.242503 -0.000228 -0.001138 -0.000101 0.070938 -26.979176 0.782026 37.136464 83.828196 41.784129 -0.741499 -16.849252 -3.693081 0.000314 0.001954 0.000139
-15.234903 126.872168 17.688409 172.086866 -44.118175 -4.211714 3.181043 24.946491 3.594985 0.387929 3.990959 0.462276 0.646349 6.392610 0.769948 2.476354 20.652925 2.830709 2.286866 23.021530 -1.143133 2.725507 -0.975318 -1.757730 0.777110 2.892607 3.933018 -11.229859 -11.410274 -6.907128 -124.169878 -58.557242 162.498595 -3.906817 -10.637270 -19.033285 -9.921356 0.349109 -0.622982 6.778365 -13.412442 6.433415 103.626256 -59.842274 -135.907412 -0.660352 -26.134043 36.217507 -3.560224 -25.259027 1.207819 -50.189367 86.183901 -52.208563 6.818714 -12.756787 3.244671 -0.000722 -0.002089 -0.000320 0.076812 -26.974938 0.783815 37.162504 83.827550 41.808607 -0.744932 -16.871888 -3.694436 0.001776 0.001013 0.000787
-15.235475 126.871700 17.688992 172.091602 -44.113839 -4.214851 3.178561 24.944728 3.597234 0.390413 3.994625 0.467746 0.645128 6.391455 0.767334 2.473605 20.650458 2.829579 2.303009 22.988702 -1.150031 2.734873 -1.018717 -1.773559 0.780954 2.876442 3.934996 -11.224620 -11.379992 -6.914740 -124.213342 -58.592550 162.569376 -3.826452 -10.544289 -18.746859 -9.925635 0.326929 -0.620718 6.680996 -13.425441 6.478194 103.575883 -59.913630 -135.887640 -0.718860 -25.976629 35.961004 -3.565026 -25.264771 1.204568 -50.245692 86.188179 -52.264749 6.823785 -12.759188 3.243882 0.000662 -0.002085 0.000293 0.074193 -26.975030 0.785491 37.218074 83.825126 41.860503 -0.752502 -16.905857 -3.695841 0.000816 -0.002883 0.000362
-15.234840 126.871700 17.689375 172.085176 -44.113205 -4.217748 3.187316 24.945509 3.606580 0.393843 3.998746 0.475263 0.642757 6.388495 0.765236 2.480588 20.653324 2.834986 2.298255 22.966872 -1.160649 2.739280 -1.040217 -1.780998 0.767941 2.855852 3.935759 -11.210553 -11.358718 -6.927246 -124.246417 -58.626775 162.634297 -3.751227 -10.440588 -18.441786 -9.951245 0.268008 -0.618397 6.565854 -13.416040 6.536790 103.516418 -59.978959 -135.832304 -0.762585 -25.824154 35.684301 -3.564537 -25.266316 1.208598 -50.306989 86.184537 -52.323119 6.842553 -12.759049 3.240122 0.004475 -0.001612 0.001983 0.080046 -26.973475 0.798391 37.301869 83.827427 41.938019 -0.765792 -16.926632 -3.686734 -0.001222 -0.001361 -0.000541
-15.235336 126.872171 17.689009 172.087777 -44.116164 -4.220127 3.188163 24.949347 3.612519 0.392070 3.998887 0.477276 0.643033 6.390492 0.768126 2.482648 20.657872 2.847902 2.293099 22.943936 -1.185050 2.744475 -1.061763 -1.788741 0.760461 2.822753 3.921270 -11.173999 -11.315983 -6.948425 -124.303342 -58.646698 162.692254 -3.683046 -10.327698 -18.097372 -9.980749 0.205425 -0.627948 6.479133 -13.398301 6.585951 103.438787 -60.039755 -135.786410 -0.787272 -25.683151 35.392769 -3.571013 -25.263897 1.203263 -50.261350 86.188563 -52.276460 6.840640 -12.755289 3.244332 0.003788 -0.002585 0.001678 0.089974 -26.967748 0.796690 37.299656 83.829919 41.943812 -0.769426 -16.941290 -3.686315 0.000965 -0.000793 0.000427
-15.235998 126.872311 17.688933 172.090226 -44.116102 -4.222195 3.186062 24.949106 3.618126 0.391236 4.000882 0.478545 0.642155 6.391887 0.769671 2.480010 20.659620 2.852301 2.299290 22.904444 -1.204221 2.775343 -1.168680 -1.832710 0.756679 2.809397 3.908995 -11.160742 -11.303738 -6.955980 -124.242734 -58.694321 162.722209 -3.591371 -10.244199 -17.774273 -9.991313 0.178562 -0.637056 6.373823 -13.411392 6.639384 103.352094 -60.091082 -135.730365 -0.793052 -25.553966 35.097087 -3.573789 -25.263501 1.194452 -50.162047 86.194448 -52.171158 6.839858 -12.753497 3.241130 0.002758 -0.002992 0.001222 0.092084 -26.966093 0.795398 37.316015 83.831800 41.964060 -0.774309 -16.956787 -3.690300 0.002438 -0.001729 0.001080
